<?xml version="1.0" encoding="utf-8"?>
<!-- Generator: Adobe Illustrator 17.1.0, SVG Export Plug-In . SVG Version: 6.00 Build 0)  -->
<!DOCTYPE svg PUBLIC "-//W3C//DTD SVG 1.1//EN" "http://www.w3.org/Graphics/SVG/1.1/DTD/svg11.dtd">
<svg version="1.1" xmlns="http://www.w3.org/2000/svg" xmlns:xlink="http://www.w3.org/1999/xlink" x="0px" y="0px"
	 viewBox="0 0 174.26 152" style="enable-background:new 0 0 174.26 152;" xml:space="preserve" class="he_marker">
<g class="he_markerg">
	<path class="he_markerFill" d="M88.522,132.66c-1.838-1.552-45.012-38.4-45.012-73.285c0-25.709,20.916-46.625,46.625-46.625
		s46.625,20.916,46.625,46.625c0,33.373-43.139,71.641-44.976,73.254l-1.617,1.42L88.522,132.66z"/>
	<path class="he_markerBorder" d="M90.135,15.25c24.37,0,44.125,19.755,44.125,44.125c0,32.625-44.125,71.375-44.125,71.375
		S46.01,93.5,46.01,59.375C46.01,35.005,65.765,15.25,90.135,15.25 M90.135,10.25c-27.088,0-49.125,22.037-49.125,49.125
		c0,36.033,44.026,73.613,45.9,75.196l3.29,2.777l3.235-2.841c1.871-1.643,45.826-40.64,45.826-75.132
		C139.26,32.287,117.223,10.25,90.135,10.25L90.135,10.25z"/>
</g>
</svg>
