<?xml version="1.0" standalone="no"?>
<!DOCTYPE svg PUBLIC "-//W3C//DTD SVG 1.1//EN" "http://www.w3.org/Graphics/SVG/1.1/DTD/svg11.dtd" >
<svg xmlns="http://www.w3.org/2000/svg">
<metadata></metadata>
<defs>
<font id="hitchhikerregular" horiz-adv-x="1024" >
<font-face units-per-em="2048" ascent="1536" descent="-512" />
<missing-glyph horiz-adv-x="500" />
<glyph horiz-adv-x="0" />
<glyph unicode="&#xd;" />
<glyph unicode=" " />
<glyph unicode="!" horiz-adv-x="665" d="M236 291q10 55 55 94t100 39t89 -39t24 -94t-57.5 -95t-102.5 -40t-87 40t-21 95zM346 629l205 1169h166l-205 -1169h-166z" />
<glyph unicode="&#x22;" horiz-adv-x="655" d="M373 938l49 279h98l-49 -279h-98zM502 938l49 279h98l-49 -279h-98z" />
<glyph unicode="#" horiz-adv-x="1212" d="M330 580l20 106h129l74 209h-166l19 106l184 3l149 421h109l-150 -421h197l149 421h107l-147 -421h163l-18 -109h-182l-74 -209h219l-20 -108h-238l-92 -263l-109 2l90 261h-194l-90 -263l-111 2l90 261zM588 686h194l76 209h-196z" />
<glyph unicode="$" horiz-adv-x="1323" d="M272 551q16 92 65.5 176t127.5 150l104 -127q-47 -41 -76.5 -92.5t-39.5 -106.5q-10 -57 2 -107.5t45 -91.5q39 -45 92 -65l160 909q-16 8 -25 14q-53 29 -104.5 59.5t-79.5 69.5q-55 66 -74.5 149t-3.5 175v2q16 92 65.5 175t126.5 149q74 63 161 97t177 38h4h7 q90 -4 164.5 -38t127.5 -97q53 -66 74 -150t4 -176h-180q10 55 -2 106.5t-45 90.5q-39 47 -88 63l-111 -623q4 -2 5.5 -3t5.5 -3q29 -23 80 -77t95 -144t66.5 -220t-8.5 -302q-16 -92 -65.5 -176t-127.5 -150t-168 -100.5t-182 -34.5t-170 35t-131 100q-55 66 -74.5 150 t-3.5 176zM645 1663q-23 -115 47 -197q14 -16 40 -33.5t56 -33.5l93 528q-68 -23 -119 -67q-98 -78 -117 -197zM772 285q33 10 64.5 27t60.5 40q94 82 117 199q16 98 12 178t-20.5 143.5t-43 111.5t-53.5 83z" />
<glyph unicode="&#x26;" horiz-adv-x="1705" d="M152 743q23 129 90 245t174 208q41 35 84 62.5t88 50.5l-21 30q-104 133 -73 320q16 92 65 174t125 147q78 66 167 101t181 35t169 -35t130 -101t72.5 -147.5t3.5 -173.5t-64.5 -175t-125.5 -149q-72 -61 -156 -95t-170 -38l342 -528q4 16 8 33.5t8 35.5h183 q-25 -127 -91 -241l144 -223l-160 -115l-111 174q-12 -12 -24 -24.5t-29 -24.5q-106 -92 -231 -139.5t-254 -47.5t-236.5 47.5t-183.5 139.5q-74 92 -100.5 208.5t-3.5 245.5zM332 743q-16 -92 3 -176t73 -149q53 -66 130.5 -100.5t170.5 -34.5q92 0 181 34.5t167 100.5 q16 16 32.5 31.5t30.5 31.5l-438 682q-84 -33 -160 -96q-78 -66 -126 -148.5t-64 -175.5zM674 1659q-18 -115 47 -197q63 -74 168 -80h14q115 0 207 80q98 82 117 197q20 111 -47 194q-68 80 -181 80q-55 0 -109 -20.5t-99 -59.5q-94 -80 -117 -194z" />
<glyph unicode="'" horiz-adv-x="319" d="M96 938l49 279h99l-49 -279h-99z" />
<glyph unicode="(" horiz-adv-x="671" d="M245 664.5q3 150.5 27 296.5q43 238 95.5 399.5t100.5 262.5t82 147.5t38 50.5h164q-59 -88 -115 -215q-47 -109 -99.5 -268.5t-91.5 -376.5q-16 -90 -20 -188.5t-3 -195t7 -183.5t12.5 -153.5t11.5 -106.5t5 -42h-183q0 8 -10 90t-17 207t-4 275.5z" />
<glyph unicode=")" horiz-adv-x="831" d="M211 96q59 88 115 215q47 109 99 268.5t91 376.5q16 88 21.5 187.5t4.5 196t-7.5 183.5t-13.5 153.5t-12 106.5t-5 42h182q0 -8 10.5 -90t17.5 -207t4 -276.5t-28 -295.5q-43 -238 -96 -399.5t-100.5 -262.5t-81 -147.5t-37.5 -50.5h-164z" />
<glyph unicode="," horiz-adv-x="751" d="M305 313q10 55 56.5 95.5t103.5 40.5q55 0 86.5 -40.5t21.5 -95.5q-8 -55 -55 -94l-106 -182l-54 35l43 108q-47 6 -75.5 44t-20.5 89z" />
<glyph unicode="." horiz-adv-x="751" d="M303 313q10 55 56.5 94t99.5 39q55 0 86.5 -39t21.5 -94q-10 -53 -55 -92t-100 -39q-53 0 -86 39t-23 92z" />
<glyph unicode="0" horiz-adv-x="1406" d="M166.5 721.5q-12.5 181.5 21.5 382.5q35 199 112 380t185 324q119 154 251 235t268 81q135 0 239.5 -81t167.5 -235q59 -143 72.5 -324t-21.5 -380q-35 -201 -111.5 -382t-187.5 -323q-119 -154 -251 -234.5t-267 -80.5t-239.5 81t-167.5 234q-59 141 -71.5 322.5z M330.5 846q1.5 -123 23.5 -228l836 1221q-43 57 -96.5 88t-118.5 31q-96 0 -193.5 -68.5t-182.5 -185.5t-149.5 -271.5t-95.5 -328.5q-25 -135 -23.5 -258zM414 438q47 -90 112.5 -140t147.5 -50q96 0 193.5 68.5t182.5 185t150.5 272.5t95.5 330q29 166 21 315.5t-47 266.5 z" />
<glyph unicode="1" horiz-adv-x="645" d="M287 1636l28 162q66 0 129.5 24.5t118.5 71.5q53 47 89 105.5t46 124.5h162l-356 -2030h-162l293 1667q-78 -59 -167 -92t-181 -33z" />
<glyph unicode="2" horiz-adv-x="1222" d="M8 92l156 135q2 2 67.5 62.5t164 165t217 243t226 296t191.5 326.5t113 335q10 59 -2.5 112.5t-46.5 94.5q-82 98 -205 98q-59 0 -115.5 -21.5t-105.5 -64.5q-49 -41 -81 -94.5t-42 -112.5q-23 -133 47 -227l-135 -109q-51 68 -69.5 154t-2.5 182q16 92 64.5 174 t125.5 148q76 66 163 99.5t180 33.5q92 -2 171.5 -39t135.5 -109q53 -63 73.5 -145t4.5 -174q-80 -461 -572 -1049q-92 -111 -177 -200t-151 -154h703l-29 -160h-1069z" />
<glyph unicode="3" horiz-adv-x="1232" d="M45 291l131 112q55 -70 137 -105.5t181 -35.5q98 0 191 36t175 105q80 68 132 155t69 183q16 98 -4.5 185.5t-75.5 154.5q-59 68 -139 105t-178 37l26 157q59 0 116.5 21.5t104.5 62.5t79 94.5t42 112.5t-2 112.5t-47 94.5q-68 86 -188 86q-121 0 -224 -86l-92 111 q76 66 163 99.5t179 33.5q90 0 166 -34t129 -99q51 -63 70.5 -144.5t3.5 -173.5q-16 -90 -64.5 -172t-121.5 -145q-10 -10 -22.5 -18.5t-25.5 -18.5q43 -23 83 -53.5t71 -69.5q76 -92 103.5 -208t5.5 -245q-23 -129 -91.5 -243.5t-175.5 -206.5q-109 -92 -233.5 -139.5 t-253.5 -47.5t-236.5 47.5t-183.5 139.5z" />
<glyph unicode="4" horiz-adv-x="1196" d="M141 842l66 110q14 23 29.5 49.5t33.5 57.5q39 66 89.5 149.5t96.5 167.5t79.5 159t42.5 124q6 35 4 59q0 31 -7 56q-4 14 -8 26t-8 25q-8 10 -15 21.5t-16 21.5q-18 25 -43 43l115 133q31 -25 64 -62q25 -31 43 -67q20 -39 28 -78q10 -45 10 -86q2 -43 -6 -92 q-10 -55 -39.5 -128t-73.5 -157t-99.5 -178t-114.5 -192h487l197 1118h161l-196 -1118h184l-28 -162h-185l-131 -744h-162l131 744h-729z" />
<glyph unicode="5" horiz-adv-x="1290" d="M45 291l141 121q59 -74 146.5 -113t191.5 -39t204.5 39t189.5 113q86 72 141 165t74 197q18 104 -5.5 197.5t-83.5 165.5q-59 74 -147 112.5t-192 38.5l-99 -2h-160h-84l146 828h944l-29 -168h-774l-86 -490h74h98q139 0 255 -51t196 -148q80 -98 109.5 -222t4.5 -261 t-97.5 -261t-186.5 -222q-115 -96 -249 -147.5t-273 -51.5q-137 0 -252 51.5t-197 147.5z" />
<glyph unicode="6" horiz-adv-x="1417" d="M129 733q12 70 41 141q41 131 115 271q133 240 350 489q94 106 183 194.5t159 153t115 100.5t49 40l86 -117q-2 -2 -69.5 -59.5t-169 -154.5t-219.5 -227t-222 -278q78 39 159.5 60.5t167.5 21.5q131 0 238 -50t177.5 -136t100 -202t7.5 -247q-23 -131 -93.5 -245.5 t-172 -200.5t-225.5 -136.5t-255 -50.5t-237.5 50.5t-177 136.5t-100.5 200.5t-7 245.5zM281 614q6 -78 38.5 -142t85 -112.5t122 -75t153.5 -26.5q98 0 191.5 37t169 101.5t128 151.5t70.5 185q16 98 -5.5 185.5t-74.5 152t-133 102t-178 37.5q-84 0 -165 -27.5 t-151.5 -76.5t-125 -116.5t-87.5 -147.5q-18 -57 -27 -114.5t-11 -113.5z" />
<glyph unicode="7" horiz-adv-x="1142" d="M25 109q25 147 95 318t165.5 349t207 354.5t220 333t205 285.5t159.5 213h-733l29 160h1022l-99 -123q-2 -2 -46 -57.5t-115.5 -149.5t-163.5 -221t-190.5 -272.5t-196 -303t-179 -313.5t-140 -302t-81.5 -271h-159z" />
<glyph unicode="8" horiz-adv-x="1406" d="M123 737q16 94 58 181.5t103.5 162t138.5 134t163 98.5q-68 61 -99.5 153.5t-13.5 202.5q16 94 67.5 176t123 143.5t160.5 97.5t182 36q94 0 169.5 -36t127 -97.5t72 -143.5t3.5 -176q-18 -111 -80.5 -203t-152.5 -153q74 -39 129 -98.5t89 -134t44 -162t-6 -181.5 q-23 -133 -93.5 -248.5t-173 -202.5t-227.5 -137.5t-258 -50.5t-239.5 50.5t-178 137.5t-101.5 202.5t-7 248.5zM283 737q-18 -98 4 -186t76.5 -152.5t135.5 -102.5t179 -38t192.5 38t171 102.5t129 152.5t70.5 186q16 96 -4 182.5t-71.5 151t-129.5 103t-174 43.5h-16h-15 q-96 -4 -188 -43t-166 -103.5t-126 -150.5t-68 -183zM633 1669q-10 -59 2 -110.5t43 -91.5t77 -64.5t103 -26.5h16h19q57 2 112.5 26.5t99.5 64.5t73.5 91.5t40.5 110.5q10 61 -3.5 114.5t-46 93.5t-82 62.5t-110.5 22.5q-59 0 -116.5 -22.5t-104.5 -62.5t-80 -93.5 t-43 -114.5z" />
<glyph unicode="9" horiz-adv-x="1433" d="M256 1487q23 131 93.5 246.5t172 201.5t225 136.5t254.5 50.5t238 -50.5t177.5 -136.5t100.5 -201.5t7 -246.5q-8 -35 -17.5 -70t-21.5 -69q-23 -66 -52.5 -133.5t-66.5 -137.5q-63 -119 -151.5 -240.5t-198.5 -248.5q-92 -106 -181.5 -194.5t-160 -153t-114.5 -101.5 t-48 -39l-86 117q2 2 69.5 59.5t168 154.5t219 227t223.5 278q-76 -39 -159 -60.5t-169 -21.5q-131 0 -237.5 50t-177 136t-100.5 201t-7 246zM416 1487q-18 -98 4 -185.5t75.5 -152t133.5 -101t178 -36.5q84 0 165 27.5t150.5 76.5t123.5 116.5t87 147.5q33 113 37 228 q-6 76 -38 141.5t-84 112.5t-122.5 73.5t-152.5 26.5q-98 0 -191.5 -38t-169 -102.5t-128 -150.5t-68.5 -184z" />
<glyph unicode=":" horiz-adv-x="714" d="M242 424q10 53 55 92t98 39q55 0 88 -39t23 -92q-10 -55 -55 -94t-101 -39q-53 0 -86 39t-22 94zM324 893q10 55 56 94t99 39q55 0 87 -39t22 -94q-10 -53 -55.5 -92t-100.5 -39q-53 0 -86 39t-22 92z" />
<glyph unicode="?" horiz-adv-x="1196" d="M336 1464q18 102 72.5 192.5t132 157t174 105.5t198.5 39t185.5 -39t138.5 -105.5t78.5 -156.5t5.5 -193l-12 -69l-72 -15q-6 -2 -60.5 -26.5t-123.5 -96.5q-104 -104 -177 -262.5t-108 -365.5h-174q41 229 113.5 389t152.5 263t159 159.5t132 81.5q0 55 -20.5 103 t-55.5 84t-84 55.5t-108 19.5q-66 0 -128.5 -25.5t-112.5 -68.5t-85 -101.5t-47 -124.5h-174zM477 272q10 59 58.5 100.5t107.5 41.5t92 -41t23 -101q-10 -59 -57.5 -100t-106.5 -41t-93 41t-24 100z" />
<glyph unicode="A" horiz-adv-x="2195" d="M23 98q18 115 78.5 217.5t156.5 182.5q96 82 205.5 124t224.5 42h397l158 880q18 113 79.5 216.5t156.5 183.5q96 82 206.5 123.5t223.5 41.5h514l-31 -170h-88l-227 -1275h88l-29 -170h-88l-88 -492h-170l88 492h-651l-70 -396q-20 -115 -81.5 -218t-155.5 -183 q-96 -80 -207 -123t-226 -43t-210 43t-160 123q-69 79 -91 183q-12 56 -12 116q0 50 9 102zM193 98q-7 -37 -7 -73q0 -41 9 -79q16 -72 65 -128q45 -57 111.5 -87t146.5 -30t158 29.5t145 87.5q63 55 107.5 127.5t58.5 152.5l70 396h-398q-80 0 -158.5 -30t-142.5 -85 q-68 -57 -110.5 -130t-54.5 -151zM1255 664h652l227 1275h-256q-78 0 -155.5 -29.5t-145.5 -84.5q-66 -57 -108 -130t-56 -151z" />
<glyph unicode="B" horiz-adv-x="1355" d="M-14 500l26 170h244l225 1280h-121l31 172h121h291q115 0 211 -43t162 -125q68 -80 92 -184q13 -56 13 -116q0 -50 -9 -102q-20 -115 -72.5 -222t-117 -201.5t-134 -170t-123.5 -127.5q-45 -41 -92 -82.5t-96 -78.5h188q115 0 211 -43t162 -123q68 -82 92 -186 q13 -56 13 -114q0 -51 -9 -104q-20 -115 -80.5 -218t-156.5 -183q-96 -82 -207 -125t-225 -43q-117 0 -212.5 43t-160.5 125q-66 79 -92 183q-14 57 -13 117q0 49 9 101l71 400h-241zM326 100q-6 -36 -6 -71q0 -41 9 -81q17 -72 64 -128q47 -57 114.5 -87t147.5 -30 t157.5 30t143.5 87q66 55 109 127.5t57 152.5q6 36 6 71q0 42 -9 82q-17 73 -64 130q-45 55 -111.5 86t-146.5 31h-400zM434 719q55 35 132 93t165 144q45 43 102.5 107.5t110.5 142.5t96 166t60 180q6 36 6 70q0 43 -10 83q-18 73 -64 128q-47 57 -113.5 87t-146.5 30h-121 z" />
<glyph unicode="C" horiz-adv-x="1269" d="M14 94l258 1448q20 115 81 218.5t155 183.5q92 78 197.5 119.5t216.5 45.5h18q111 -4 201 -46t151 -119q66 -80 92 -184q14 -58 14 -119q0 -48 -9 -99q-20 -115 -72.5 -222.5t-118 -200.5t-134.5 -169t-122 -127l-108 111q47 45 107 110.5t115.5 145.5t100.5 169t62 183 q6 36 6 70q1 42 -9 82q-18 72 -65 129q-92 113 -250 116q-160 -4 -293 -116q-66 -55 -108.5 -128t-57.5 -153l-258 -1448q-6 -36 -6 -70q0 -42 10 -82q18 -72 64 -128q47 -57 113.5 -87t146.5 -30t158 29.5t143 87.5q66 55 109 127.5t57 152.5h170q-20 -115 -79.5 -218 t-156.5 -183q-94 -80 -205.5 -123t-226.5 -43t-209 43t-161 123q-65 79 -89 183q-14 62 -14 127q0 45 6 91z" />
<glyph unicode="D" horiz-adv-x="1505" d="M141 -406l414 2356h-219l31 172h792q117 0 213 -43t164 -125q66 -82 92 -186q14 -57 13 -119q0 -50 -9 -103h-172q6 37 6 72q0 43 -9 83q-17 73 -64 130t-116 88t-149 31h-401l-313 -1782h401q80 0 160 30.5t145 88.5q68 57 110 129.5t58 154.5l172 975h172l-172 -975 q-23 -117 -83 -221t-156 -186q-98 -82 -209 -125t-228 -43h-401l-70 -402h-172z" />
<glyph unicode="E" horiz-adv-x="1267" d="M8 88l4 6q45 186 156 360.5t283 329.5q-41 63 -82 146.5t-71 181.5t-41 209q-4 39 -4 79q0 73 13 148q20 117 82 220.5t158 185.5q92 78 198.5 121t217.5 47h10h8q111 -4 202 -47t156 -121q66 -82 92 -186q14 -58 14 -120q0 -49 -9 -100h-172q6 34 6 68q-1 44 -11 86 q-18 74 -65 129q-45 55 -109.5 86t-142.5 33q-78 -2 -153.5 -33t-141.5 -86t-109.5 -129t-58.5 -154q-10 -60 -10 -119q0 -47 6 -93q14 -103 47 -194t75 -167t77 -127l16 -25l-14 -86l-29 -24q-166 -141 -274.5 -301t-151.5 -328q-5 -33 -5 -64q1 -46 11 -88q18 -72 64 -129 q47 -57 114.5 -86.5t147.5 -29.5t159 29.5t146 86.5q66 57 109 130t57 155h172q-20 -117 -80.5 -220.5t-159.5 -184.5q-96 -82 -206.5 -125t-227.5 -43t-213 43t-164 125q-66 82 -90 185q-14 59 -14 122q0 48 8 98z" />
<glyph unicode="F" horiz-adv-x="1855" d="M8 82q20 117 81 221.5t159 185.5q96 82 207.5 125t228.5 43h401l228 1293h-291q-82 0 -160 -31t-145 -88q-66 -57 -109 -130t-57 -155q-8 -39 -8 -76q0 -38 9 -76q17 -72 64 -130l-141 -123q-69 81 -95 185q-14 55 -14 115q0 51 11 105q20 117 81.5 221.5t159.5 186.5 q96 82 207 125t228 43h1163l-31 -172h-700l-228 -1293h330l-31 -172h-329l-70 -403q-23 -117 -83 -220.5t-156 -185.5q-98 -82 -209 -125t-228 -43t-214 43t-163 125q-68 82 -92 186q-13 56 -13 116q0 51 9 104zM180 82q-7 -37 -7 -73q-1 -41 9 -79q18 -72 66 -133 q97 -116 261 -116h3q80 0 159 29.5t144 86.5q70 59 112 132t58 153l70 403h-402q-82 0 -159.5 -30.5t-145.5 -87.5q-66 -57 -109.5 -130t-58.5 -155z" />
<glyph unicode="G" horiz-adv-x="1280" d="M10 100l256 1452q20 115 82 218.5t158 183.5q92 78 196.5 121t215.5 47h18q111 -4 201 -47t155 -121q66 -80 90 -184q14 -55 14 -114q0 -51 -10 -104q-20 -115 -72 -222t-116.5 -201.5t-134.5 -170t-123 -127.5l-109 111q47 45 106.5 110.5t116 145.5t101.5 170t62 184 q6 36 6 70q0 42 -9 83q-18 73 -65 128q-45 55 -109.5 85t-142.5 32q-160 -4 -293 -117q-66 -55 -108.5 -128t-57.5 -153l-256 -1452q-6 -36 -6 -70q0 -42 10 -82q17 -73 64 -128q45 -57 112.5 -87t147.5 -30q164 0 303 117q49 41 84 90t57 104h-329l30 172h510l-16 -86 q-20 -115 -80.5 -218t-155.5 -183q-98 -82 -208.5 -125t-225.5 -43t-210 43t-160 125q-68 80 -93 183q-14 60 -14 123q0 47 8 95z" />
<glyph unicode="H" horiz-adv-x="2256" d="M14 86q23 119 85.5 226.5t162.5 193.5t216 130t237 44h415l254 1425h179l-254 -1425h684l254 1425h178l-254 -1425h92l-31 -178h-92l-76 -416h-178l76 416h-684l-76 -416q-20 -121 -83.5 -228.5t-164.5 -191.5q-100 -86 -215.5 -130t-234.5 -44q-121 0 -221.5 44 t-169.5 130q-67 84 -91 192q-14 64 -14 132q0 47 6 96zM193 86q-6 -38 -6 -74q0 -44 9 -86q17 -76 66 -135q100 -121 273 -121q84 0 164.5 31t150.5 90t115 135t59 160l76 416h-416q-86 0 -167 -32t-150 -91q-70 -59 -114 -134t-60 -159z" />
<glyph unicode="I" horiz-adv-x="1216" d="M360 -479l31 172h225l400 2263h-225q-123 0 -220.5 41t-162.5 119l143 122q45 -53 114.5 -81.5t155.5 -28.5h621l-31 -172h-223l-400 -2263h224l-31 -172h-621z" />
<glyph unicode="J" horiz-adv-x="1523" d="M20 74q20 113 80 214t154 181q92 78 201.5 121t222.5 43l-29 -168q-78 0 -154.5 -29.5t-142.5 -85.5q-66 -55 -107.5 -126.5t-56.5 -149.5q-6 -36 -6 -70q0 -41 8 -80q17 -71 64 -127q95 -114 253 -114h3q78 0 154.5 29.5t142.5 84.5t107.5 127t56.5 150l317 1800h-172 h-2q-117 0 -213 40t-160 118l142 118q43 -53 109.5 -80.5t150.5 -27.5h2h604l-29 -168h-264l-317 -1800q-20 -113 -81 -215.5t-153 -180.5q-94 -80 -202.5 -121.5t-221.5 -41.5t-207 42t-159 121q-66 78 -89 180q-14 59 -14 120q0 47 8 96z" />
<glyph unicode="K" horiz-adv-x="1972" d="M12 92q23 117 83.5 220.5t156.5 183.5q98 82 208.5 125t225.5 43h401l170 964q-96 -80 -205.5 -122t-224.5 -42l29 172q80 0 159 30t144 87q68 57 112 130t58 153h170l-239 -1362q117 20 217 106q66 57 108.5 130t56.5 153l87 487q20 115 80.5 218.5t158.5 185.5 q94 82 205 125t227 43l-30 -172q-164 0 -304 -117q-66 -57 -108.5 -130t-56.5 -153l-86 -487q-20 -115 -81 -218.5t-159 -185.5q-29 -23 -57.5 -44t-61.5 -37q49 -33 90 -82q68 -80 94 -184q13 -54 13 -112q0 -52 -11 -108h-172q8 39 8 76q0 38 -9 76q-17 72 -64 131 q-68 84 -180 108l-70 -391q-20 -117 -80.5 -220t-154.5 -183q-98 -82 -209 -125t-228 -43q-115 0 -211 43t-161 125q-69 80 -93 183q-14 59 -14 123q0 47 8 97zM184 92q-6 -36 -7 -70q1 -42 11 -82q18 -72 64 -130q98 -117 262 -117q80 0 159 29.5t144 87.5q68 57 111 129.5 t57 152.5l72 400h-402q-80 0 -158.5 -30t-144.5 -87q-68 -57 -109.5 -130t-58.5 -153z" />
<glyph unicode="L" horiz-adv-x="1476" d="M45 1524l31 178q86 0 167 31.5t152 91.5q68 59 113 135t61 162h179l-342 -1944h813q-8 43 -29 96.5t-59.5 100.5t-100 78.5t-153.5 31.5l32 179q315 0 441 -273q23 -49 36 -87t19 -70q6 -30 7 -58v-19q0 -18 -1 -36q-4 -27 -10 -72q-4 -23 -8 -49h-93h-1105l299 1696 q-98 -84 -214 -128t-235 -44z" />
<glyph unicode="M" horiz-adv-x="2158" d="M12 102q20 115 82 218.5t156 183.5q94 82 204.5 124t225.5 42l-29 -170q-164 0 -303 -117q-66 -57 -108.5 -129t-57.5 -152q-6 -36 -7 -70q1 -42 11 -82q18 -72 64 -130q47 -57 113.5 -87t146.5 -30q164 0 303 117q68 57 110 130t56 152l256 1450q20 115 81.5 218.5 t156.5 183.5q96 82 205.5 125t226.5 43h256h268l-31 -172h-98l-326 -1848h-170l326 1848h-172l-246 -1395h-170l246 1387q-119 -25 -217 -109q-66 -55 -109 -128t-57 -153l-256 -1450q-20 -117 -80.5 -219t-155.5 -184q-98 -80 -207.5 -123t-226.5 -43q-115 0 -210 43 t-160 123q-67 83 -91 185q-14 59 -14 122q0 47 8 96z" />
<glyph unicode="N" horiz-adv-x="2174" d="M43 104q23 121 87.5 229.5t164.5 194.5t217 130t238 44l-33 -180q-172 0 -318 -123q-72 -59 -115.5 -135t-60.5 -160q-6 -37 -6 -72q1 -46 11 -90q18 -76 67 -135q99 -122 271 -122h3q84 0 166 31.5t154 90.5q70 59 115 135t59 162l280 1590q-98 -84 -213.5 -128 t-234.5 -44l31 180q84 0 166 31.5t153 91.5q68 59 113 135t61 162h178l-118 -674l526 -639l231 1311h181l-359 -2036h-180l82 471l-526 639l-195 -1110q-23 -117 -86 -219.5t-160 -183.5q-102 -86 -218 -131.5t-236 -45.5q-121 0 -222.5 45t-171.5 132q-70 85 -96 193 q-15 61 -15 127q0 50 9 103z" />
<glyph unicode="O" horiz-adv-x="1251" d="M111 631l165 938q18 111 78 212t152 179t199.5 120t218.5 42t203.5 -42t158.5 -120t90 -180q13 -56 12 -114q0 -47 -8 -97l-166 -938q-20 -111 -79.5 -211.5t-151.5 -177.5q-92 -78 -200.5 -120t-219.5 -42t-203 42t-157 120t-89 178q-12 53 -13 109q0 50 10 102z M276 631q-7 -38 -7 -73q0 -113 71 -200q47 -53 111.5 -82.5t142.5 -29.5t152.5 29.5t140.5 82.5q133 115 162 275l165 936q6 35 6 69q0 42 -9 80q-17 70 -62 125q-68 82 -180 105q-59 -174 -207 -299q-74 -63 -160 -103.5t-174 -52.5zM469 1663q106 29 197 102 q88 76 133 179q-105 -25 -197 -101q-90 -78 -133 -180z" />
<glyph unicode="P" horiz-adv-x="1968" d="M10 100q20 117 82 220.5t158 185.5q96 80 207.5 124t228.5 44l-31 -172q-82 0 -160.5 -31t-144.5 -86q-139 -117 -168 -285q-6 -36 -7 -70q1 -42 11 -82q18 -72 64 -130q47 -57 114.5 -87t149.5 -30q164 0 303 117q66 57 109 129.5t57 152.5l326 1850q-164 0 -303 -117 q-66 -57 -109 -130t-57 -153q-7 -40 -7 -76q0 -119 72 -208l-141 -121q-68 81 -92 185q-13 56 -14 116q0 51 10 104q20 115 80.5 218.5t158.5 185.5q96 82 207 125t225 43h291q117 0 213 -43t164 -125q65 -82 91 -186q14 -57 14 -116q0 -50 -9 -102q-20 -117 -72.5 -224 t-118 -201.5t-134 -171t-123.5 -128.5q-51 -49 -106.5 -96t-112 -89t-109.5 -75t-98 -51l-76 -432h-2q-23 -111 -83 -209t-153 -176q-96 -82 -206.5 -125t-225.5 -43q-117 0 -213 43t-164 125q-66 81 -90 185q-14 59 -14 122q0 47 8 96zM1264 713q55 35 132 94t163 145 q45 43 103 107.5t112.5 143.5t97.5 167t59 180q6 36 6 71q0 42 -9 82q-17 73 -64 130t-115 87t-150 30h-118z" />
<glyph unicode="Q" horiz-adv-x="1349" d="M113 649l163 928q20 111 78 209t150 176t198.5 119t217.5 41t201.5 -41t154.5 -119q63 -78 88 -176q14 -53 14 -110q0 -48 -10 -99l-164 -928q-14 -86 -53 -164.5t-98 -148.5l125 -150l-138 -114l-120 145q-82 -55 -173.5 -85t-183.5 -30q-111 0 -202 41t-156 119 q-63 78 -87 178q-13 55 -13 114q0 46 8 95zM276 649q-5 -34 -5 -66q0 -42 9 -81q15 -70 62 -123q45 -55 108.5 -84t141.5 -29q121 0 229 70l-125 153l138 115l122 -149q66 86 84 194l164 926q7 36 7 71q0 39 -9 76q-16 70 -61 123q-68 82 -178 105q-27 -84 -79.5 -158 t-123.5 -137q-74 -61 -159 -100t-173 -54zM469 1671q106 25 195 101q90 78 131 174q-104 -25 -195 -101q-88 -76 -131 -174z" />
<glyph unicode="R" horiz-adv-x="2000" d="M10 96q20 117 82 220.5t158 185.5t206.5 125t227.5 43l-31 -172q-164 0 -303 -117q-66 -57 -109.5 -131t-58.5 -154q-6 -36 -7 -70q1 -42 11 -82q18 -72 64 -130q47 -57 114.5 -88t147.5 -31q82 0 161 30.5t144 88.5q68 57 111 129.5t57 152.5l326 1854q-80 0 -158 -31 t-145 -88q-66 -57 -109 -130t-57 -153q-7 -37 -7 -73q0 -41 9 -81q16 -74 63 -130l-141 -121q-68 81 -92 185q-13 56 -14 116q0 51 10 104q20 117 80.5 220.5t158.5 185.5q96 82 207 125t227 43h291q117 0 213.5 -43t163.5 -125q67 -80 91 -182q14 -58 13 -120q0 -48 -8 -98 v-4v-2q-23 -117 -85 -220t-160 -183q-43 -39 -92.5 -67.5t-100.5 -51.5q14 -10 26.5 -23.5t22.5 -27.5q66 -81 92 -181q16 -62 16 -127q0 -41 -7 -83h2l-90 -506h-172l86 481q7 39 7 76q0 125 -77 219q-47 59 -114.5 90t-149.5 31l-158 -897q-23 -111 -83 -210t-152 -177 q-96 -82 -208 -125t-229 -43t-212 43t-163 125q-66 81 -90 185q-14 59 -14 123q0 47 8 97zM1341 1147h107q84 0 165 30.5t152 90.5q66 57 110 129.5t60 152.5q5 33 5 65q0 45 -10 88q-17 73 -64 128q-47 57 -115 88t-147 31h-121z" />
<glyph unicode="S" horiz-adv-x="1591" d="M160 952l143 121q-2 2 -2 4q8 -8 43 -18t91.5 -17.5t134.5 -9.5h31q64 0 138 6q20 2 42 3t48 6q-41 25 -75.5 51t-57.5 55q-66 81 -91 183q-14 57 -14 117q0 48 9 99v2h-2h2q20 115 81.5 217.5t156.5 182.5q92 78 199.5 121t217.5 47h7h6q111 -4 204 -47t158 -121 q66 -80 90 -184q13 -56 13 -114q0 -51 -9 -104q-20 -115 -80.5 -218t-154.5 -183q-113 -95 -244 -154q45 -43 101.5 -118.5t98.5 -186.5q43 -110 59 -256q6 -49 5 -103q0 -107 -22 -231q-20 -117 -80.5 -219t-155.5 -184q-98 -80 -208.5 -123t-225.5 -43t-210 43t-161 123 q-68 83 -92 185q-13 56 -13 115q0 50 9 103q20 115 81 218.5t157 183.5l98 -121q-66 -57 -108.5 -129t-57.5 -152q-6 -36 -6 -70q0 -42 10 -82q18 -72 64 -130q45 -57 112.5 -87t147.5 -30q164 0 303 117q66 57 109 130t57 152q20 111 20 205q1 63 -9 121q-22 140 -70 239 t-103 157.5t-86 80.5q-4 4 -11 9.5t-16 9.5q-98 -29 -186 -41.5t-154 -16.5q-31 -4 -62.5 -4h-64.5q-68 0 -134 5t-121.5 16.5t-97.5 28t-62 40.5zM770 1554q-6 -36 -6 -69q0 -43 10 -83q18 -72 64 -128q27 -33 82 -66.5t112 -64.5q16 -8 30.5 -16.5t31.5 -16.5 q78 27 152.5 65.5t142.5 94.5q66 57 108.5 130t56.5 152q6 36 6 71q0 42 -9 82q-17 73 -64 128q-45 57 -111.5 87t-144.5 30t-154 -31t-141 -86q-66 -55 -109 -128t-57 -151z" />
<glyph unicode="T" horiz-adv-x="1927" d="M8 92q23 117 83.5 220.5t156.5 183.5q98 82 208.5 125t225.5 43l-31 -172q-80 0 -158.5 -30t-144.5 -87q-68 -57 -109.5 -130t-58.5 -153q-6 -36 -7 -70q1 -42 11 -82q18 -72 64 -130q98 -117 262 -117q82 0 161 29.5t144 87.5q68 57 110 129.5t56 152.5l328 1858h-291 q-164 0 -303 -117q-66 -57 -109 -130t-57 -153q-6 -37 -7 -72q0 -42 10 -82q17 -72 64 -128l-143 -123q-69 81 -93 185q-13 56 -13 116q0 51 10 104q20 115 80.5 218.5t158.5 185.5q96 82 207 125t226 43h1097l-30 -172h-635l-328 -1858q-20 -117 -80.5 -220t-157.5 -183 q-98 -82 -208.5 -125t-227.5 -43q-115 0 -211 43t-162 125q-68 80 -92 183q-14 59 -14 122q0 48 8 98z" />
<glyph unicode="U" horiz-adv-x="2064" d="M279 1530l30 176q84 0 165 31.5t151 91.5q70 59 113.5 134t58.5 159h178l-354 -2013q-7 -38 -7 -75q0 -43 10 -84q19 -75 66 -134q102 -121 271 -121q84 0 164.5 30.5t150.5 90.5q72 59 115 134t59 159l354 2013h176l-352 -2003q-7 -39 -7 -76q-1 -43 9 -83 q18 -75 68 -134q100 -123 270 -123l-31 -176q-119 0 -218 44t-169 128q-37 45 -65 102q-47 -59 -105 -110q-100 -84 -215.5 -128t-234.5 -44t-218.5 44t-168.5 128q-71 87 -97 193q-14 58 -14 120q0 51 10 105l281 1591q-98 -84 -213 -127t-231 -43z" />
<glyph unicode="V" horiz-adv-x="1732" d="M260 1518q23 121 84.5 229t157.5 195q98 88 209.5 134t228.5 46t213 -46t162 -134q59 -80 83 -182q16 -65 16 -133q0 -39 -5 -79h2l-240 -1360q-10 -56 -10 -110q1 -43 7 -83q14 -91 61 -163q63 -96 170 -129l428 2423h172l-461 -2605h-86q-117 0 -213 51t-160 149 q-63 96 -83 216q-9 56 -9 115q0 66 12 136l234 1330q8 44 8 85q0 126 -72 222q-47 59 -114.5 92t-145.5 33q-80 0 -158.5 -33t-144.5 -92q-68 -61 -112.5 -140t-61.5 -167q-8 -42 -8 -82q0 -44 10 -86q18 -80 64 -142q47 -59 113.5 -92t146.5 -33l-31 -170q-117 0 -213 46.5 t-164 132.5q-66 86 -89 194q-12 55 -12 115q0 57 11 117z" />
<glyph unicode="W" horiz-adv-x="2121" d="M272 1516q23 123 84.5 231t157.5 195q98 88 210 134t228 46q117 0 213.5 -46t161.5 -134q59 -80 84 -182q16 -67 16 -138q0 -37 -4 -76l-252 -1425q-8 -42 -8 -82q-1 -44 9 -85q18 -79 63 -140q35 -45 79 -74t97 -43l324 1829h172l-324 -1839h172l432 2431h172 l-463 -2601h-430h-2q-117 0 -213 46t-161 132q-66 85 -90 195q-12 57 -12 117q0 56 11 114l246 1395q8 44 8 86t-8 82q-16 80 -63 141q-47 59 -115 92t-145 33q-80 0 -159 -33t-145 -92q-68 -61 -112.5 -141t-61.5 -168q-8 -42 -8 -82q0 -44 10 -85q18 -79 64 -141 q45 -61 112.5 -94t147.5 -33l-31 -170q-117 0 -214 46.5t-163 132.5t-89 196q-12 56 -12 114q0 57 11 116z" />
<glyph unicode="X" horiz-adv-x="1941" d="M258 1509q23 123 85.5 233.5t158.5 196.5q100 88 213.5 135.5t230.5 47.5q129 0 222.5 -54.5t136.5 -154.5q25 -57 49 -135t47.5 -172.5t46 -198.5t45.5 -215l571 885l146 -74l-674 -1040q29 -158 52.5 -304.5t41 -261t27.5 -187.5t10 -85l-174 -51q0 2 -8 56 t-20.5 144.5t-31 210t-40.5 252.5l-795 -1229l-143 74l897 1389q-25 127 -50.5 253t-52 237.5t-54.5 204.5t-54 157q-27 59 -84.5 92t-141.5 33q-80 0 -159.5 -33t-147.5 -94q-70 -61 -114.5 -141.5t-61.5 -170.5q-7 -42 -7 -81q-1 -46 9 -88q18 -80 66 -142 q47 -61 114.5 -94t147.5 -33l-31 -174q-117 0 -215 47t-166 135q-66 87 -89 197q-12 59 -12 121q0 55 9 112z" />
<glyph unicode="Y" horiz-adv-x="1740" d="M268 1530l31 176q84 0 165 31.5t150 91.5q70 59 114 134t58 159h179l-179 -1008q-7 -39 -7 -75q0 -123 77 -218q104 -121 274 -121q84 0 165 31t149 90q70 59 114 134t58 159l178 1008h178l-354 -2013q-23 -121 -86.5 -227.5t-161.5 -192.5q-100 -86 -215 -130t-233 -44 q-121 0 -220.5 44t-169.5 130t-96 193q-14 57 -14 119q0 53 10 108q20 119 85 225t163 192l102 -125q-70 -59 -113.5 -133.5t-58.5 -158.5q-7 -40 -7 -77q0 -44 9 -84q19 -75 66 -134q104 -121 274 -121q84 0 165 30.5t149 90.5q70 59 113.5 134t60.5 161l102 583 q-98 -82 -213 -126t-231 -44q-121 0 -219.5 44t-169.5 130q-68 86 -93 192q-15 63 -15 130q0 47 7 96l105 584q-98 -82 -213 -125t-232 -43z" />
<glyph unicode="Z" horiz-adv-x="1546" d="M-84 -479l711 1102q-57 23 -107.5 56.5t-89.5 82.5l141 121q31 -37 71 -63.5t89 -39.5l756 1170h-537q-166 0 -305 -117q-66 -57 -108.5 -130t-57.5 -153q-8 -43 -8 -85q1 -43 9 -83q16 -80 63 -141l-146 -117q-66 86 -89 194q-12 55 -12 115q0 57 11 117 q20 115 81 218.5t159 185.5q96 82 206.5 125t227.5 43h807l-875 -1350q59 12 116.5 40t107.5 71l100 -121q-94 -82 -205.5 -125t-226.5 -43h-6l-584 -901h1010l-31 -172h-1278z" />
<glyph unicode="\" horiz-adv-x="1705" />
<glyph unicode="a" horiz-adv-x="1488" d="M102 584q20 117 83 223t159 188q98 84 213 128t231 44q117 0 214.5 -43t164.5 -125l13 80h176l-86 -495q-13 -77 -14 -144q0 -12 1 -24q3 -76 16 -129.5t35.5 -83t47.5 -29.5t58.5 29.5t67.5 83t63.5 129.5t45.5 168l8 45l142 -39v-11q0 -125 -42 -227 q-44 -106 -102.5 -185t-128 -123t-141.5 -44q-86 0 -146.5 63.5t-86.5 174.5q-16 -16 -33 -34t-37 -34q-96 -82 -210 -126t-230 -44q-117 0 -216.5 44t-168.5 126q-67 84 -93 190q-14 58 -14 120q0 51 10 104zM276 584q-7 -38 -7 -75q-1 -42 9 -82q18 -75 68 -132 q47 -59 115.5 -90t150.5 -31t162 31t150 90q68 57 110.5 132t59.5 157q6 36 6 71q0 43 -10 85q-18 74 -64 132q-100 119 -268 119q-82 0 -162 -29.5t-147 -89.5q-70 -59 -114 -132.5t-59 -155.5z" />
<glyph unicode="b" horiz-adv-x="1507" d="M102 584l263 1489h174l-189 -1074q98 82 210 125t228 43q117 0 216.5 -44t166.5 -126q67 -85 93 -191q14 -60 15 -122q0 -49 -9 -100q-22 -125 -92 -236q86 27 200.5 92.5t239.5 196.5l80 -143q-82 -90 -198 -166t-214 -116t-175 -53.5t-118 -13.5q-92 -72 -196.5 -108.5 t-212.5 -36.5q-117 0 -216.5 44t-168.5 126q-67 84 -93 190q-14 58 -14 120q0 51 10 104zM276 584q-7 -37 -7 -72q1 -43 11 -84q20 -74 66 -133q98 -121 266 -121q82 0 162 31t150 90t112.5 133t59.5 156q7 38 7 74q0 122 -77 214q-49 59 -117.5 90t-150.5 31t-162 -30.5 t-147 -90.5q-70 -59 -114 -132.5t-59 -155.5z" />
<glyph unicode="c" horiz-adv-x="1206" d="M102 584q20 117 83 223t161 190t212 128t230 44q117 0 216.5 -44t166.5 -128l-145 -125q-98 121 -268 121q-82 0 -162 -30.5t-147 -90.5q-70 -57 -113 -130.5t-57 -157.5q-7 -40 -7 -78q0 -119 74 -211q47 -59 116.5 -89t151.5 -30q256 0 471 178q53 45 93.5 89t67 80 t40.5 60.5t19 30.5l149 -51q-41 -84 -74.5 -129t-83 -98t-112.5 -107q-135 -113 -288 -171t-312 -58q-117 0 -216.5 44t-166.5 128q-69 82 -95 188q-14 58 -14 120q0 51 10 104z" />
<glyph unicode="d" horiz-adv-x="1525" d="M102 584q20 117 83 223t159 190q98 82 213 126t231 44q117 0 214.5 -43t166.5 -125l189 1074h174l-262 -1489q-23 -125 -92 -236q86 27 200.5 92.5t239.5 196.5l74 -152q-76 -82 -192 -157.5t-214 -115.5t-175 -53.5t-118 -13.5q-92 -72 -196.5 -108.5t-212.5 -36.5 q-117 0 -216.5 44t-168.5 126q-67 84 -93 190q-14 58 -14 120q0 51 10 104zM276 584q-7 -37 -7 -72q1 -43 11 -84q20 -74 66 -133q98 -121 266 -121q82 0 162 31t150 90t112.5 133t59.5 156q7 38 7 74q0 122 -77 214q-49 59 -117.5 90t-150.5 31t-162 -30.5t-147 -90.5 q-70 -59 -114 -132.5t-59 -155.5z" />
<glyph unicode="e" horiz-adv-x="1200" d="M100 580q10 57 36 151t93 189q29 41 74 84t107.5 77.5t146.5 57t193 22.5q289 0 383 -241q18 -51 26 -102.5t8 -97.5t-4 -83t-8 -57l-14 -86h-873q4 -115 76 -201q47 -57 114.5 -88t149.5 -31q254 0 469 178q53 43 93 87t67 80t41 60.5t18 30.5l131 -59 q-25 -76 -58.5 -120t-81.5 -97t-111 -107q-274 -227 -596 -227q-117 0 -215.5 43t-165.5 127q-71 82 -95 188q-13 58 -13 119q0 50 9 103zM293 668h698v18q0 38 -6 83q-8 56 -37.5 104.5t-84 81t-144.5 32.5h-3q-243 0 -347 -149q-29 -41 -47.5 -85t-28.5 -85z" />
<glyph unicode="f" horiz-adv-x="704" d="M-201 -1143l281 1598h-123q0 8 5 37.5t11 62.5q8 37 17 84h127q4 16 14 49t25.5 72t35 79t41.5 70q31 43 79 89t116 84t157 61.5t206 23.5h18t16 -2l-32 -186q-8 2 -16.5 2h-18.5q-264 0 -377 -160q-31 -45 -49.5 -92t-28.5 -90h367l-35 -186h-371l-278 -1596h-187z" />
<glyph unicode="g" horiz-adv-x="1456" d="M102 584q20 117 83 223t159 188q98 84 213 128t231 44q117 0 216.5 -44t164.5 -128h2l15 84h174l-135 -774l391 324l78 -142l-512 -428l-189 -1063l-14 -88h-86q-68 0 -119 14.5t-91 39t-70.5 55.5t-57.5 63q-57 82 -79 182q-11 51 -11 106q0 51 10 104q20 117 83 222 t161 189l301 250l6 39l-2 -2q-96 -82 -210 -126t-230 -44q-117 0 -216.5 44t-168.5 126q-66 84 -93 190q-14 59 -14 120q0 51 10 104zM276 584q-7 -37 -7 -72q0 -43 11 -84q19 -74 66 -133q98 -121 266 -121q82 0 162 31t150 90t111.5 133t58.5 156q6 36 6 71q0 44 -10 85 q-17 73 -64 132q-100 119 -268 119q-82 0 -162 -29.5t-147 -89.5q-70 -59 -114 -132.5t-59 -155.5zM651 -528q-7 -39 -7 -76q0 -42 10 -82q18 -74 65 -131v-2q29 -31 56.5 -52.5t62.5 -33.5l139 794l-156 -131q2 0 -6 -4q-88 -74 -131 -178q-4 -4 -5 -10t-5 -12v-3 q-6 -14 -10.5 -27t-8.5 -26q-2 -8 -2 -14t-2 -12z" />
<glyph unicode="h" horiz-adv-x="1378" d="M0 2l377 2136h188l-184 -1038q141 65 287 65h4q127 0 232.5 -47t178.5 -137q73 -89 101 -203q15 -63 16 -131q0 -54 -10 -110l-19 -97q27 20 54.5 40t58.5 36q55 33 108.5 54.5t94.5 34.5t66.5 18.5t27.5 5.5v-185q-4 -2 -38 -9t-82 -26.5t-105.5 -51t-109.5 -81 t-93 -117t-57 -157.5h-189l94 535q7 39 7 77q0 46 -11 90q-20 80 -71 144q-51 61 -124 95t-163 34q-78 0 -153.5 -25.5t-143.5 -74.5l-154 -875h-188z" />
<glyph unicode="i" horiz-adv-x="485" d="M87 354q-2 26 -2 52q0 85 17 180l86 493h177l-86 -493q-14 -80 -14 -147q1 -11 1 -21q2 -76 17.5 -129t38 -83t47.5 -30t57.5 30t66 83t63.5 129t54 215l105 -47q4 -39 4 -77q-1 -81 -21 -155q-30 -108 -89.5 -186t-129 -123t-141.5 -45t-126 45t-86 123t-39 186z M217 1303q6 39 38 65.5t71 26.5q38 0 60 -27q16 -20 17 -47q0 -9 -2 -18q-8 -39 -38.5 -66t-69.5 -27t-61 27q-17 20 -17 46q0 10 2 20z" />
<glyph unicode="j" horiz-adv-x="483" d="M-530 -770q-11 50 -11 103q0 54 11 110q20 119 83.5 226.5t161.5 193.5h2l303 254l168 962h179l-138 -788l416 348l103 -127l-564 -469l-188 -1083l-16 -88h-91q-68 0 -120 14t-91.5 38.5t-71.5 56.5t-59 65h2q-59 82 -79 184zM-352 -557q-8 -40 -8 -77q0 -43 10 -83 q18 -76 65 -135q29 -33 57.5 -54.5t63.5 -31.5l141 807l-157 -133q-70 -59 -114 -134t-58 -159zM223 1303q6 41 39 67.5t72 26.5t62 -27q17 -21 17 -51q0 -8 -1 -16q-8 -39 -40 -66t-71 -27t-63 27q-17 20 -17 47q0 9 2 19z" />
<glyph unicode="k" horiz-adv-x="983" d="M0 0l354 2013h178l-110 -622q10 10 18.5 17t18.5 17q45 37 93 74t96 66.5t96.5 47t95.5 17.5q80 0 127 -57q12 -16 24.5 -42t12.5 -61.5t-16.5 -82t-59.5 -103.5q-41 -53 -94.5 -103.5t-100.5 -88.5q-14 -14 -30.5 -26.5t-32.5 -23.5q76 -70 104 -212q12 -65 12 -138 q0 -88 -18 -188l-16 -92q25 20 50 39.5t54 37.5q104 68 170 110t70 43l43 -128q-4 -2 -36 -16.5t-78 -43t-100.5 -71.5t-103.5 -100.5t-88 -128t-53 -154.5h-176l88 504q13 77 13 144v25q-3 77 -18.5 131t-39 84t-47.5 30q-25 0 -57.5 -30t-66.5 -84t-63.5 -131t-46.5 -169 l-88 -504h-178zM420 1108q55 14 109.5 41t101.5 68q39 35 83 75.5t77 81.5q12 14 24 39q7 15 7 25q0 6 -3 10q-2 4 -10 4q-10 0 -27.5 -5t-46 -20.5t-72 -46.5t-102.5 -80q-96 -86 -141 -192z" />
<glyph unicode="l" horiz-adv-x="489" d="M85 348q-2 25 -2 51q0 83 17 176l273 1536h172l-273 -1533q-13 -77 -14 -143q0 -12 1 -24q3 -75 17.5 -128.5t37 -82t46.5 -28.5q25 0 58 28.5t65.5 82t61 128t45.5 167.5h149v-11q0 -117 -41 -219q-43 -106 -101 -183t-127 -121t-138 -44q-72 0 -124 44t-84 121t-39 183 z" />
<glyph unicode="m" horiz-adv-x="1523" d="M0 0l90 514l4 23l107 602h190l-8 -41q43 35 90 53t94 18q84 0 143.5 -53t92.5 -145q66 92 143.5 145t159.5 53q78 0 135 -48t91 -133q34 -84 42 -200q2 -29 2 -59q0 -90 -18 -192h-189q16 88 16 161q-1 10 -1 20q-2 81 -18.5 139t-41 90t-51.5 32t-62.5 -32t-71.5 -90 t-67.5 -139t-50.5 -181l-94 -537h-190l94 537q15 86 15 157v24q-3 81 -19.5 139t-41 90t-50.5 32q-25 0 -61 -32t-71.5 -90t-67.5 -139t-50 -181l-4 -23l-91 -514h-190zM1075 0l94 537h189l-19 -97q29 20 56.5 40t58.5 36q57 33 109.5 54.5t94.5 34.5t67.5 19.5t27.5 6.5 v-94v-93q-4 -2 -38 -9t-83 -26.5t-106.5 -52t-110.5 -81t-94 -117t-57 -158.5h-189z" />
<glyph unicode="n" horiz-adv-x="1255" d="M0 0l188 1075h129q158 94 328 94q119 0 218.5 -48t166.5 -140q68 -89 92 -203q12 -57 12 -119q0 -60 -12 -122l-16 -84q23 16 44 31.5t44 29.5q53 33 103.5 54.5t89 33.5t63.5 16.5t27 4.5l2 -93l2 -92q-6 -2 -37 -9t-76 -25.5t-98 -50t-101.5 -80t-86.5 -116t-54 -157.5 h-188l94 537q8 45 8 87q0 130 -74 228q-45 61 -111.5 94t-144.5 33q-70 0 -138 -24.5t-130 -71.5l-154 -883h-190z" />
<glyph unicode="o" horiz-adv-x="1470" d="M80 588q23 119 85 225.5t161 190.5q98 84 212.5 128t233.5 44t217 -44.5t168 -127.5q69 -84 95 -190q14 -57 13 -118q0 -53 -10 -108q-23 -127 -90 -238q88 27 203 92.5t240 198.5l100 -88q-102 -147 -219 -224t-216 -117t-176 -52.5t-120 -14.5q-92 -72 -196.5 -108.5 t-215.5 -36.5q-119 0 -218 44t-169 128q-68 84 -94 190q-14 58 -13 121q0 51 9 105zM256 588q-7 -39 -6 -75q0 -123 76 -216q47 -59 116.5 -90t153.5 -31t163 31t148 90q70 59 114 133t58 158q7 38 7 75q0 43 -10 83q-19 74 -66 133q-97 120 -266 120h-3q-84 0 -163.5 -30.5 t-149.5 -89.5t-113 -133t-59 -158z" />
<glyph unicode="p" horiz-adv-x="1449" d="M-176 -1008l274 1573q2 4 2 9.5t2 9.5q20 117 82 221t160 188q96 82 208 125t228 43q117 0 215.5 -43t165.5 -125q66 -84 93 -189q15 -59 15 -122q0 -48 -9 -98q-10 -61 -34 -119.5t-57 -114.5q86 27 198 91.5t237 195.5l110 -100q-113 -133 -226.5 -207t-211.5 -114 t-174 -52t-119 -14q-92 -70 -194.5 -107t-210.5 -37q-115 0 -211.5 43t-163.5 123l-205 -1180h-174zM276 584q-7 -40 -7 -77q0 -118 75 -210q47 -57 115.5 -88t148.5 -31q82 0 162 31t145 88q139 119 170 287q6 36 6 70q0 44 -10 86q-18 73 -65 130t-114.5 88t-149.5 31 q-80 0 -160 -30.5t-148 -88.5q-68 -57 -110.5 -130.5t-57.5 -155.5z" />
<glyph unicode="q" horiz-adv-x="1394" d="M109 614q20 111 79.5 210.5t151.5 176.5q92 78 197.5 119t216.5 41t202 -40t156 -115l10 55h164l-149 -848q55 80 118 154q59 70 113.5 124t97.5 90.5t70 56t29 21.5l41 -65l39 -64q-2 0 -25 -17t-60.5 -51t-87 -82t-102.5 -110q-141 -168 -228 -348t-122 -373l-80 -444 h-164l199 1118q-92 -78 -197.5 -117.5t-216.5 -39.5t-203 40.5t-155 118.5q-66 78 -89 179q-13 55 -13 114q0 47 8 96zM274 614q-5 -34 -5 -66q0 -42 9 -82q15 -69 62 -124q45 -53 108.5 -83t141.5 -30t152.5 30t140.5 83q63 55 105 125t54 147q7 36 7 71q0 39 -9 77 q-16 69 -61 123q-47 55 -111.5 83.5t-142.5 28.5t-151.5 -28.5t-137.5 -83.5q-66 -53 -106.5 -123t-55.5 -148z" />
<glyph unicode="r" horiz-adv-x="690" d="M-63 0l202 1096h180v-4q100 47 226.5 73.5t267.5 26.5l-35 -193q-106 0 -197.5 -18t-159 -45t-107.5 -57.5t-46 -57.5l-151 -821h-180z" />
<glyph unicode="s" horiz-adv-x="872" d="M-141 -106q14 78 54 147.5t105 122.5h-2q55 47 127 98t154 105q-16 10 -33.5 20t-36.5 21q-45 23 -85 48t-66 58q-44 53 -62 123q-10 39 -10 79q0 32 6 66v2q14 78 55 147.5t105 123.5q63 53 136 81.5t149 30.5h4h4q74 -2 136.5 -30.5t107.5 -81.5t61 -124q9 -38 9 -78 q0 -35 -7 -71h-174q4 21 4 40q0 61 -39 110q-49 57 -133 61q-88 -4 -156 -61q-35 -29 -56 -68t-32 -80q-2 -17 -2 -34q0 -64 37 -113q14 -16 48 -36.5t65 -37.5q29 -16 54.5 -30.5t47.5 -30.5q6 -6 15.5 -14.5t21.5 -18.5q80 45 162 84t157.5 67.5t143 45t123.5 16.5 l-31 -174q-37 0 -87 -12.5t-109.5 -36t-126 -54t-134.5 -67.5q41 -76 61 -186q9 -48 10 -104q0 -71 -15 -154q-12 -78 -54.5 -148t-105.5 -125q-63 -53 -138 -83t-153 -30t-142.5 30t-109.5 83q-69 90 -69 205q0 33 6 68zM31 -106q-3 -19 -4 -36q0 -62 39 -114 q55 -61 139 -61q86 0 157 61q73 64 89 150q13 66 13 122q0 46 -9 84q-19 86 -52 144q-164 -100 -284 -203q-72 -61 -88 -147z" />
<glyph unicode="t" horiz-adv-x="499" d="M85 346q-2 26 -2 52q0 85 17 180l162 911h-110l30 176h111l82 446h176l-82 -446h238l-31 -176h-238l-162 -911q-13 -77 -14 -144q0 -12 1 -24q3 -76 18.5 -129.5t38 -83t47.5 -29.5t58.5 29.5t67 83t62.5 129t45 168.5h137q1 -15 1 -30q0 -108 -38 -202 q-43 -108 -99 -186t-124.5 -123t-140.5 -45t-126 45t-86 123t-39 186z" />
<glyph unicode="u" horiz-adv-x="1486" d="M102 584l86 493h174l-86 -493q-7 -39 -7 -76q-1 -43 9 -82q18 -74 68 -131q96 -121 266 -121q82 0 162 31t148 90q68 57 111.5 131t60.5 158l86 493h174l-86 -493q-14 -80 -14 -147v-21q2 -76 16 -129.5t36.5 -83t47.5 -29.5t58.5 29.5t67 83t73.5 133.5t55 223l96 -59 v-17q0 -115 -24 -215q-26 -106 -85 -185t-128.5 -123t-141.5 -44q-86 0 -146.5 63.5t-84.5 174.5l-34 -34t-36 -34q-98 -82 -211 -126t-229 -44q-117 0 -216.5 44t-168.5 126q-67 84 -93 190q-14 58 -14 120q0 51 10 104z" />
<glyph unicode="v" horiz-adv-x="933" d="M62 350q-2 26 -1 54q0 84 17 178l86 495h174l-86 -495q-13 -77 -13 -143v-24q3 -75 16 -128.5t35.5 -83t47.5 -29.5t57.5 29.5t66.5 83t63.5 128t45.5 167.5l86 495h177q-7 -39 -7 -76q0 -121 74 -213q99 -118 265 -118h3l-30 -176q-117 0 -214.5 43t-164.5 125l-12 -80 q-23 -125 -67 -231.5t-103.5 -184.5t-128 -122t-140.5 -44t-125 44t-83.5 122t-38.5 184z" />
<glyph unicode="w" horiz-adv-x="1492" d="M87 354q-2 26 -2 52q0 85 17 180l88 497h177l-88 -497q-14 -80 -14 -147q1 -11 1 -21q2 -76 16.5 -129t37 -83t47.5 -30t58.5 30t67 83t62.5 129t45 168l88 497h176l-88 -497q-13 -77 -13 -144v-24q3 -76 17.5 -129t37 -83t46.5 -30q25 0 58.5 30t67.5 83t62.5 129 t45.5 168l88 497h176l-88 -497q-13 -77 -13 -144v-24q3 -76 17 -129t36.5 -83t47.5 -30t58.5 30t67.5 83t62.5 129t51.5 215l100 -33q2 -31 2 -61q0 -93 -18 -179q-24 -114 -84 -192t-129.5 -123t-141.5 -45q-76 0 -131 48t-86 134q-61 -86 -132 -134t-148 -48 q-76 0 -131.5 48t-86.5 134q-61 -86 -131.5 -134t-148.5 -48q-72 0 -125 45t-85 123t-39 186z" />
<glyph unicode="x" horiz-adv-x="806" d="M37 76l299 495l-82 512h176l43 -301l156 303h182l-301 -528q6 -55 8 -72q6 -68 13.5 -128t19.5 -103q20 -57 37 -57q23 0 54.5 27.5t124.5 146t179 270.5l88 -68q-49 -123 -106.5 -217t-112.5 -167.5t-121.5 -115.5t-134.5 -42q-123 0 -170 151q-10 33 -17 69t-12 77 l-159 -250z" />
<glyph unicode="y" horiz-adv-x="1318" d="M102 380q-10 51 -10 105q0 55 10 113l91 512h172l-91 -512q-8 -44 -8 -85q0 -38 6 -73q15 -73 54 -133q77 -112 211 -112h2q137 0 254 112q59 59 98 133t55 158l84 479h172l-135 -764l403 336l101 -123l-545 -454l-186 -1051l-15 -86h-86q-68 0 -118 14.5t-88.5 38 t-68.5 54t-56 61.5v2q-55 80 -77 179q-11 50 -11 103q0 50 10 103q20 117 80.5 221.5t158.5 186.5h2l295 245l4 21q-82 -70 -175 -107t-187 -37q-104 0 -189.5 45.5t-144.5 129.5q-53 82 -72 185zM502 -510q-8 -39 -8 -75q0 -41 10 -79q18 -73 65 -131q29 -33 55.5 -54 t61.5 -32l137 783l-153 -127q-66 -57 -110 -131t-58 -154z" />
<glyph unicode="z" horiz-adv-x="1169" d="M63 4l709 961h-387l29 170h678l-707 -961h307q29 90 84 171t135 147q47 39 91.5 65.5t87.5 45t90 28.5t100 20q37 -160 37 -164q-80 0 -160 -29.5t-145 -86.5q-68 -55 -111 -127t-57 -152l-17 -88h-764z" />
<glyph unicode="&#xa0;" />
<glyph unicode="&#x2000;" horiz-adv-x="1119" />
<glyph unicode="&#x2001;" horiz-adv-x="2238" />
<glyph unicode="&#x2002;" horiz-adv-x="1119" />
<glyph unicode="&#x2003;" horiz-adv-x="2238" />
<glyph unicode="&#x2004;" horiz-adv-x="746" />
<glyph unicode="&#x2005;" horiz-adv-x="559" />
<glyph unicode="&#x2006;" horiz-adv-x="373" />
<glyph unicode="&#x2007;" horiz-adv-x="373" />
<glyph unicode="&#x2008;" horiz-adv-x="279" />
<glyph unicode="&#x2009;" horiz-adv-x="447" />
<glyph unicode="&#x200a;" horiz-adv-x="124" />
<glyph unicode="&#x202f;" horiz-adv-x="447" />
<glyph unicode="&#x205f;" horiz-adv-x="559" />
<glyph unicode="&#x25fc;" horiz-adv-x="1085" d="M0 0v1085h1085v-1085h-1085z" />
</font>
</defs>
</svg>
